<svg width="305" height="126" viewBox="0 0 305 126" fill="none" xmlns="http://www.w3.org/2000/svg">
<mask id="mask0_1055_15605" style="mask-type:alpha" maskUnits="userSpaceOnUse" x="0" y="0" width="305" height="126">
<rect width="305" height="126" rx="12" fill="#FFE6DD"/>
</mask>
<g mask="url(#mask0_1055_15605)">
<path d="M96 144.789C101.5 142.122 99.6229 141.039 108.5 139.697C123.691 137.402 116.626 114.766 132 114.725C143.416 114.694 142.843 98.4002 154 96.0558C165.647 93.6085 171.608 108.664 183 105.269C191.715 102.672 190.969 90.9615 200 89.7521C207.313 88.7728 210.408 95.3108 217.75 96.0558C246.902 99.0142 214.244 29.42 243.5 27.6843C273.481 25.9055 246.091 69.1226 276 71.8106C288.673 72.9496 290.749 86.714 305.5 87.0851C315.049 87.3254 314.767 104.161 324.25 105.269C337.754 106.847 332.42 118.347 346 119.089C356.75 119.676 358.005 96.5461 365.5 96.0558C375.58 95.3964 371.216 104.124 381.25 105.269C387.731 106.008 396 88.5398 396 88.5398" stroke="url(#paint0_linear_1055_15605)" stroke-opacity="0.3" stroke-width="4" stroke-linecap="round"/>
<path d="M105 187.894C110.5 185.227 108.623 184.144 117.5 182.803C132.691 180.507 125.626 157.871 141 157.83C152.416 157.8 151.843 141.506 163 139.161C174.647 136.714 180.608 151.77 192 148.375C200.715 145.777 199.969 134.067 209 132.858C216.313 131.878 219.408 138.416 226.75 139.161C255.902 142.12 223.244 72.5255 252.5 70.7897C282.481 69.011 255.091 112.228 285 114.916C297.673 116.055 299.749 129.819 314.5 130.191C324.049 130.431 323.767 147.266 333.25 148.375C346.754 149.953 341.42 161.452 355 162.194C365.75 162.782 367.005 139.652 374.5 139.161C384.58 138.502 380.216 147.23 390.25 148.375C396.731 149.114 405 131.645 405 131.645" stroke="url(#paint1_linear_1055_15605)" stroke-opacity="0.3" stroke-width="4" stroke-linecap="round"/>
</g>
<defs>
<linearGradient id="paint0_linear_1055_15605" x1="246" y1="27.6309" x2="246" y2="144.789" gradientUnits="userSpaceOnUse">
<stop stop-color="white"/>
<stop offset="1" stop-color="#39827E"/>
</linearGradient>
<linearGradient id="paint1_linear_1055_15605" x1="255" y1="70.7363" x2="255" y2="187.894" gradientUnits="userSpaceOnUse">
<stop stop-color="white"/>
<stop offset="1" stop-color="#39827E"/>
</linearGradient>
</defs>
</svg>
