<svg width="48" height="43" viewBox="0 0 48 43" fill="none" xmlns="http://www.w3.org/2000/svg">
<path d="M23.8365 8.33667L14.2069 38.3748L9.63281 32.9573L14.1587 18.1559L23.8365 8.33667Z" fill="#39827E"/>
<path d="M18.0578 42.2445L9.77636 33.9731C9.43932 33.6345 9.43932 33.0057 9.82451 32.7155L46.8504 0.113774C47.2356 -0.22482 47.7652 0.258885 47.4764 0.69422L20.0319 42.051C19.5986 42.7282 18.6356 42.8249 18.0578 42.2445Z" fill="#EC7345"/>
<path d="M0.388139 14.383L8.23629 22.2673C8.76592 22.7994 9.58444 22.7994 10.0659 22.2673L23.6437 8.62687C23.9807 8.28827 23.9807 7.70783 23.6437 7.36923L19.8881 3.6447C19.503 3.25774 18.877 3.161 18.3955 3.40285L0.725176 12.303C-0.0933423 12.69 -0.237787 13.7541 0.388139 14.383Z" fill="#EC7345"/>
</svg>
