<svg width="201" height="173" viewBox="0 0 201 173" fill="none" xmlns="http://www.w3.org/2000/svg">
<g clip-path="url(#clip0_611_55830)">
<path d="M83.6107 150.294L85.806 143.149C83.1646 140.244 79.8535 138.027 76.1602 136.69C79.7685 142.665 76.272 150.459 77.7291 157.283C78.1998 159.409 79.1431 161.401 80.4889 163.112C81.8347 164.823 83.5486 166.21 85.5035 167.169L88.8349 171.294C90.5814 168.245 91.6456 164.853 91.9543 161.353C92.2629 157.853 91.8086 154.328 90.6226 151.02C89.9389 149.171 89.025 147.415 87.9023 145.794C85.9226 148.12 83.6107 150.294 83.6107 150.294Z" fill="#F2F2F2"/>
<path d="M71.5381 151.208L70.3145 143.834C66.6538 142.411 62.7008 141.902 58.7988 142.352C64.6946 146.092 65.043 154.626 69.3927 160.085C70.7624 161.777 72.4955 163.14 74.4637 164.071C76.432 165.003 78.5848 165.48 80.7626 165.468L85.5853 167.675C85.7876 164.167 85.2266 160.657 83.9409 157.387C82.6552 154.117 80.6754 151.164 78.1379 148.732C76.7008 147.382 75.0993 146.218 73.3712 145.267C72.6372 148.232 71.5381 151.208 71.5381 151.208Z" fill="#F2F2F2"/>
<path d="M143.389 169.461L140.007 169.461L138.398 156.426L143.389 156.426L143.389 169.461Z" fill="#FFB6B6"/>
<path d="M144.251 172.737L133.348 172.737V172.599C133.348 171.474 133.795 170.395 134.591 169.6C135.387 168.805 136.466 168.358 137.592 168.358H137.592L139.584 166.848L143.3 168.358L144.251 168.358L144.251 172.737Z" fill="#2F2E41"/>
<path d="M198.014 157.134L195.709 159.606L185.07 151.895L188.473 148.246L198.014 157.134Z" fill="#FFB6B6"/>
<path d="M201.001 158.737L193.566 166.708L193.466 166.614C192.642 165.847 192.157 164.785 192.118 163.661C192.078 162.536 192.487 161.443 193.254 160.62L193.507 158.134L197.146 156.447L197.795 155.751L201.001 158.737Z" fill="#2F2E41"/>
<path d="M193.011 149.808L189.437 157.279L167.489 142.756L164.296 138.408L153.827 124.153L149.571 130.901L146.61 137.956C145.645 138.585 144.832 139.42 144.229 140.402C143.626 141.383 143.249 142.486 143.125 143.631L142.99 144.88L144.861 161.691L137.749 163.874L133.664 141.29L134.999 136.397L136.374 129.527L143.295 107.82H161.816L172.439 130.418L173.216 135.023L176.227 138.477L193.011 149.808Z" fill="#2F2E41"/>
<path d="M154.521 72.3057L157.639 74.6783L161.399 75.8331C161.399 75.8331 162.954 97.6852 164.354 99.085C165.755 100.485 164.492 100.522 164.773 102.341C165.055 104.159 165.739 107.887 165.739 107.887C156.284 112.888 148.134 113.022 141.587 107.17C141.503 106.808 141.546 106.428 141.707 106.093C141.869 105.759 142.141 105.49 142.477 105.33C143.695 104.684 141.353 101.668 142.349 101.164C143.345 100.66 141.944 96.2854 141.944 96.2854L142.863 87.1587L142.137 85.6998L143.909 76.7729L146.982 75.651L148.21 72.6944L154.521 72.3057Z" fill="#3F3D56"/>
<path d="M156.474 111.144C156.46 110.749 156.533 110.356 156.688 109.993C156.842 109.63 157.074 109.304 157.368 109.04C157.662 108.776 158.01 108.58 158.388 108.465C158.766 108.35 159.164 108.319 159.556 108.374L163.95 99.8389L166.398 104.186L161.85 111.625C161.713 112.275 161.342 112.853 160.807 113.249C160.272 113.644 159.611 113.83 158.948 113.77C158.286 113.711 157.668 113.411 157.212 112.927C156.756 112.443 156.494 111.809 156.474 111.144Z" fill="#FFB6B6"/>
<path d="M163.872 109.056L173.297 94.4585L173.266 94.3913C173.23 94.3144 171.096 89.708 169.028 85.4888C168.71 84.839 168.393 84.1985 168.085 83.5851C167.953 83.3203 167.822 83.0611 167.693 82.8074C166.825 81.0962 166.066 79.6818 165.613 79.01C164.611 77.491 163.12 76.3601 161.386 75.8052L161.342 75.7939L161.301 75.8113C160.453 76.1689 159.752 76.8047 159.314 77.6137C158.876 78.4228 158.727 79.3568 158.891 80.2619C159.709 84.6274 161.53 88.7432 164.212 92.2845L165.74 94.2972L160.431 105.834L163.872 109.056Z" fill="#3F3D56"/>
<path d="M131.466 53.0997C131.725 53.3975 131.916 53.7485 132.025 54.128C132.134 54.5076 132.159 54.9064 132.097 55.2964C132.035 55.6864 131.888 56.0582 131.667 56.3854C131.446 56.7127 131.156 56.9875 130.817 57.1905L132.782 66.5863L128.141 64.7501L126.987 56.1092C126.683 55.5176 126.607 54.8353 126.774 54.1915C126.94 53.5478 127.337 52.9873 127.889 52.6164C128.441 52.2454 129.11 52.0897 129.769 52.1788C130.428 52.2679 131.032 52.5955 131.466 53.0997Z" fill="#FFB6B6"/>
<path d="M127.033 59.3789L128.91 76.6501L128.976 76.6827C129.031 76.7096 131.409 77.875 134.327 79.263C134.819 79.4971 134.749 80.5113 135.263 80.7537C135.618 80.9207 136.554 80.3148 136.912 80.4822C140.102 81.9731 143.327 83.4227 144.613 83.8155C146.348 84.365 148.219 84.3048 149.916 83.6449L149.957 83.6262L149.978 83.5865C150.412 82.775 150.555 81.8401 150.386 80.936C150.216 80.0318 149.744 79.2125 149.046 78.6129C145.66 75.7361 141.652 73.6851 137.337 72.6218L134.882 72.0198L131.738 59.7165L127.033 59.3789Z" fill="#3F3D56"/>
<path d="M151.196 71.3267C154.602 71.3267 157.363 68.5673 157.363 65.1633C157.363 61.7594 154.602 59 151.196 59C147.79 59 145.029 61.7594 145.029 65.1633C145.029 68.5673 147.79 71.3267 151.196 71.3267Z" fill="#FFB6B6"/>
<path d="M145.074 61.0333C145.581 59.5587 148.106 58.5359 152.199 58.3937C156.292 58.2515 157.33 63.0719 157.33 63.0719C160.062 65.287 154.412 71.2175 154.139 71.0039L154.262 69.8897C154.465 68.0441 155.33 66.6041 154.23 64.6807L153.174 64.6928C151.81 64.9549 150.447 65.217 149.083 65.4791L150.697 64.0583L150.652 63.9879C149.965 64.3454 149.218 64.5722 148.448 64.6567C147.58 64.7077 146.631 64.3625 146.215 63.5995C146.104 63.3897 146.037 63.1599 146.016 62.9235C144.846 63.3908 144.311 64.8327 144.311 64.8327C144.311 64.8327 144.567 62.5078 145.074 61.0333Z" fill="#2F2E41"/>
<path d="M24.8479 61.4035C24.7643 61.2974 24.6742 61.1966 24.5781 61.1016C24.6016 61.0694 24.6251 61.0342 24.6485 61.002L24.8479 61.4035Z" fill="#2F2E41"/>
<path d="M26.047 86.1921C25.0382 87.9828 23.0235 88.9822 21.0265 89.4717C18.7833 90.0589 16.4212 90.0132 14.2024 89.3398C13.9209 89.2489 13.6393 89.1434 13.3666 89.0262C13.4977 88.6782 13.6017 88.3205 13.6775 87.9564C13.7795 87.4638 13.8306 86.9619 13.83 86.4588C13.6077 86.8921 13.3199 87.2886 12.9766 87.6341C12.7117 87.9121 12.4109 88.1536 12.0821 88.3521C11.0623 87.7335 10.1793 86.9138 9.48683 85.943C9.53081 85.8345 9.57481 85.7261 9.61587 85.6177C9.82881 85.0513 9.99745 84.4692 10.1203 83.8768C10.2869 83.0757 10.3704 82.2595 10.3695 81.4413C10.0079 82.1463 9.53901 82.7909 8.97948 83.3521C8.81173 83.5315 8.63352 83.7008 8.44577 83.8592C8.15502 82.9767 8.04263 82.0453 8.11512 81.119C8.18761 80.1928 8.44354 79.2901 8.86805 78.4636C10.0293 76.3182 12.2816 75.0433 14.2874 73.6571C16.2962 72.2708 18.3051 70.3951 18.4751 67.9596C18.5895 66.3154 17.827 64.6683 18.132 63.0505C18.2603 62.3683 18.5734 61.7343 19.0373 61.2177C19.5012 60.701 20.0981 60.3215 20.7629 60.1205C21.4277 59.9195 22.135 59.9047 22.8077 60.0776C23.4803 60.2506 24.0926 60.6048 24.5778 61.1015C23.44 62.7134 22.308 64.3811 21.8476 66.2978C21.3784 68.2497 21.7625 70.5387 23.3021 71.8312C23.83 72.2766 24.4781 72.5932 24.8857 73.15C25.4282 73.8886 25.4312 74.8733 25.5192 75.7819C25.6951 77.5492 26.2728 79.249 26.5837 80.9987C26.8975 82.7455 26.9151 84.6417 26.047 86.1921Z" fill="#2F2E41"/>
<path d="M5.36719 158.871L8.0437 160.938L17.2937 151.604L13.3434 148.554L5.36719 158.871Z" fill="#A0616A"/>
<path d="M5.48035 156.853L9.90629 159.867L8.50565 161.679L10.3815 167.561C10.4741 167.852 10.4715 168.164 10.3738 168.453C10.2762 168.742 10.0887 168.992 9.83878 169.167C9.58883 169.342 9.28948 169.433 8.98445 169.425C8.67941 169.418 8.38466 169.314 8.14323 169.127L3.1063 165.238L3.62355 162.775L1.89912 164.305L0 162.839L5.48035 156.853Z" fill="#2F2E41"/>
<path d="M18.9453 66.6099C18.9449 67.655 19.2012 68.6842 19.6918 69.6072C20.1823 70.5302 20.892 71.3187 21.7587 71.9035C22.6253 72.4884 23.6223 72.8517 24.6623 72.9616C25.7022 73.0714 26.7532 72.9245 27.723 72.5336C28.6928 72.1427 29.5518 71.5199 30.2246 70.7198C30.8974 69.9198 31.3633 68.9668 31.5816 67.9448C31.7998 66.9227 31.7636 65.8627 31.4763 64.8579C31.1889 63.853 30.6592 62.934 29.9335 62.1815L29.9028 62.1509C29.8517 62.0973 29.8006 62.0437 29.7469 61.9926L29.7459 61.9924L29.7451 61.9918L29.7445 61.991L29.7444 61.99C29.6779 61.9287 29.6115 61.8674 29.5425 61.8087C28.4181 60.8229 26.8378 59.7529 25.2254 59.7529C21.6964 59.7529 18.9453 63.0831 18.9453 66.6099Z" fill="#2F2E41"/>
<path d="M55.3591 63.3321C55.3897 63.6726 55.3451 64.0157 55.2287 64.3372C55.1123 64.6587 54.9267 64.9507 54.6851 65.1928C54.4435 65.4348 54.1517 65.621 53.8304 65.7382C53.509 65.8554 53.1658 65.9007 52.825 65.871L37.0055 80.1457L34.2832 75.8487L50.6892 63.1683C50.7771 62.5994 51.0708 62.0825 51.5145 61.7155C51.9583 61.3486 52.5213 61.157 53.0969 61.1772C53.6726 61.1974 54.2208 61.4279 54.6377 61.8251C55.0546 62.2222 55.3113 62.7584 55.3591 63.3321Z" fill="#A0616A"/>
<path d="M30.2443 84.4536C30.2443 84.4536 30.8329 85.54 32.8434 83.8625C34.4531 82.5194 42.1646 76.6889 43.8259 74.2997C44.2053 74.4499 44.6238 74.4697 45.0157 74.356C45.4076 74.2423 45.7504 74.0015 45.9903 73.6716L41.4384 69.6875C40.0764 69.8442 40.1056 70.7586 40.2475 71.2777L36.8139 72.8324L27.9473 78.4954L29.8049 83.6758L30.2443 84.4536Z" fill="#39827E"/>
<path d="M21.6541 94.463L21.3226 96.041L21.041 101.862L33.4363 102.543L33.0514 93.59L31.8499 91.6172L21.6541 94.463Z" fill="#A0616A"/>
<path d="M26.9078 73.441C29.8664 73.441 32.2648 71.044 32.2648 68.0872C32.2648 65.1304 29.8664 62.7334 26.9078 62.7334C23.9492 62.7334 21.5508 65.1304 21.5508 68.0872C21.5508 71.044 23.9492 73.441 26.9078 73.441Z" fill="#A0616A"/>
<path d="M17.3962 87.8346L17.3633 83.3843C17.3625 81.783 17.9047 80.2288 18.9014 78.9751C19.8982 77.7213 21.2906 76.8422 22.8515 76.481L22.8717 76.4762L23.931 75.0498L28.2347 75.4801L29.0235 77.0912L32.142 78.947L33.3426 82.8044C33.8634 83.1513 34.3072 83.6015 34.6466 84.1271C34.9859 84.6527 35.2134 85.2424 35.3151 85.8596C35.7227 88.4618 33.8996 91.0655 33.6828 91.3641L33.124 94.509L20.969 96.6524L20.8703 96.6648L17.3962 87.8346Z" fill="#39827E"/>
<path d="M33.4624 67.1333C32.8375 67.5289 32.1892 67.8861 31.521 68.2031C30.8428 68.5287 30.1334 68.785 29.4037 68.968C29.1949 68.5102 28.9394 68.0751 28.6412 67.6697C28.7179 68.1501 28.7199 68.6394 28.6471 69.1204C27.4375 69.3154 26.1987 69.2139 25.0371 68.8244L24.0283 67.1333L23.952 69.0208C23.1163 69.1732 22.2834 69.3168 21.4476 69.4663C21.3978 69.4721 21.3479 69.4839 21.301 69.4926C20.7819 67.1539 21.518 64.5777 23.1544 63.0185C23.9668 62.2525 24.9803 61.7328 26.0768 61.5201C27.1733 61.3074 28.3077 61.4103 29.348 61.8169C29.4799 61.8696 29.6148 61.9282 29.7439 61.9898L29.7441 61.9909L29.7447 61.9919L29.7457 61.9925L29.7468 61.9927C29.823 62.0308 29.8876 62.1217 29.9726 62.1129C33.6324 61.7055 33.7497 64.5425 33.4624 67.1333Z" fill="#2F2E41"/>
<path d="M24.5508 151.968L27.2314 154.029L36.4627 144.677L32.5064 141.635L24.5508 151.968Z" fill="#A0616A"/>
<path d="M24.9038 150.136L29.3358 153.142L27.9388 154.956L29.8265 160.835C29.9198 161.125 29.9178 161.438 29.8207 161.727C29.7237 162.016 29.5367 162.266 29.2871 162.442C29.0375 162.617 28.7383 162.708 28.4333 162.701C28.1282 162.695 27.8333 162.591 27.5915 162.405L22.5467 158.526L23.059 156.062L21.3376 157.596L19.4355 156.133L24.9038 150.136Z" fill="#2F2E41"/>
<path d="M15.8534 140.554L15.8533 140.519L17.1237 138.331L15.8264 135.483L15.7875 128.166L15.9978 127.067C16.2807 125.59 16.1984 124.066 15.7581 122.627L15.7344 118.173C15.6888 117.058 17.4184 116.076 17.015 115.146C13.2027 106.354 20.908 99.6462 20.9601 99.5923L21.1175 99.4287L21.9719 100.075L22.785 100.076L33.7582 102.075L33.8375 102.222C34.2691 103.031 35.102 105.82 35.1514 107.082C35.6983 107.715 41.9278 114.919 42.4816 115.419C46.2237 118.803 48.3662 124.404 49.3102 127.441C49.5447 128.192 49.5919 128.989 49.4479 129.762C49.3038 130.535 48.9728 131.261 48.4837 131.877L34.3171 147.385L30.5048 143.868L38.1702 129.908L37.6174 128.492C36.6257 128.309 35.7281 127.788 35.0779 127.017L33.5257 125.176C33.096 124.668 32.8229 124.046 32.7395 123.385L31.7982 123.272L28.4264 119.734L26.0872 140.906L25.4512 142.578L14.3757 155.591L9.68359 152.66L15.8534 140.554Z" fill="#2F2E41"/>
<path d="M14.1618 49.6449C13.949 49.9126 13.7976 50.2237 13.7181 50.5563C13.6386 50.8888 13.6331 51.2347 13.7019 51.5697C13.7706 51.9046 13.912 52.2204 14.1161 52.4948C14.3202 52.7691 14.582 52.9955 14.8831 53.1578L11.3613 63.5777L14.237 74.62L18.8742 72.5249L16.0127 64.196L18.1535 52.0726C18.3929 51.549 18.4317 50.9559 18.2627 50.4056C18.0938 49.8553 17.7287 49.3861 17.2366 49.0868C16.7446 48.7876 16.1598 48.6791 15.5931 48.782C15.0264 48.8848 14.5172 49.1919 14.1618 49.6449Z" fill="#A0616A"/>
<path d="M18.4062 83.7182C18.4062 83.7182 17.317 84.3027 16.5596 81.7969C15.9532 79.7909 11.8264 68.8991 11.752 65.9905C11.3525 65.9077 10.9919 65.6944 10.727 65.3842C10.4622 65.074 10.3081 64.6845 10.2891 64.2772L16.2827 63.4482C17.3345 64.3271 16.8074 65.075 16.4034 65.4309L18.4448 68.8866L22.7117 78.2161L19.2009 83.3097L18.4062 83.7182Z" fill="#39827E"/>
<path d="M21.4473 69.4657C22.0628 67.6106 23.1665 65.9553 24.6425 64.6733C26.1186 63.3913 27.9127 62.53 29.8366 62.1796C29.8443 62.177 29.8698 62.1668 29.903 62.1515C29.9235 62.1387 29.949 62.126 29.9746 62.1132C29.8979 62.0698 29.8238 62.0315 29.7471 61.9931L29.7462 61.993L29.7453 61.9924L29.7448 61.9916L29.7446 61.9906C29.6782 61.9293 29.6117 61.868 29.5427 61.8093L29.3485 61.8169C29.3485 61.8169 22.5231 60.7367 21.4473 69.4657Z" fill="#FD6584"/>
<path d="M109.52 129.125C110.265 128.006 109.824 126.404 108.535 125.547C107.246 124.69 105.598 124.903 104.853 126.022C104.108 127.141 104.549 128.743 105.838 129.599C107.126 130.456 108.775 130.244 109.52 129.125Z" fill="#F2F2F2"/>
<path d="M94.3988 87.3603C95.1438 86.2413 94.7029 84.6395 93.414 83.7826C92.1252 82.9256 90.4765 83.1381 89.7316 84.2571C88.9867 85.3761 89.4276 86.9779 90.7164 87.8348C92.0052 88.6918 93.6539 88.4793 94.3988 87.3603Z" fill="#F2F2F2"/>
<path d="M157.633 151.656C158.378 150.537 157.937 148.935 156.648 148.078C155.36 147.222 153.711 147.434 152.966 148.553C152.221 149.672 152.662 151.274 153.951 152.131C155.24 152.988 156.888 152.775 157.633 151.656Z" fill="#F2F2F2"/>
<path d="M29.7875 17.293C30.5324 16.174 30.0915 14.5721 28.8027 13.7152C27.5139 12.8583 25.8652 13.0707 25.1203 14.1897C24.3754 15.3087 24.8163 16.9105 26.1051 17.7675C27.3939 18.6244 29.0426 18.412 29.7875 17.293Z" fill="#F2F2F2"/>
<path d="M89.4496 4.10447C90.1945 2.98547 89.7536 1.38366 88.4648 0.526716C87.176 -0.330225 85.5273 -0.11779 84.7824 1.00121C84.0375 2.12021 84.4784 3.72203 85.7672 4.57897C87.056 5.43591 88.7047 5.22346 89.4496 4.10447Z" fill="#F2F2F2"/>
<path d="M61.2133 114.759C61.9582 113.64 61.5173 112.038 60.2285 111.181C58.9397 110.324 57.291 110.537 56.5461 111.656C55.8011 112.775 56.2421 114.376 57.5309 115.233C58.8197 116.09 60.4684 115.878 61.2133 114.759Z" fill="#E6E6E6"/>
<path d="M184.28 173H5.49047C5.40382 173 5.3208 172.965 5.25961 172.904C5.19842 172.843 5.16406 172.759 5.16406 172.673C5.16406 172.586 5.19842 172.503 5.25961 172.442C5.3208 172.381 5.40382 172.346 5.49047 172.346H184.28C184.367 172.346 184.45 172.38 184.512 172.442C184.573 172.503 184.608 172.586 184.608 172.673C184.608 172.76 184.573 172.843 184.512 172.904C184.45 172.966 184.367 173 184.28 173Z" fill="#CCCCCC"/>
<path d="M38.7694 64.3406C37.2654 64.3362 35.8159 63.7781 34.6977 62.7729C33.5796 61.7677 32.8714 60.3859 32.7084 58.8917L29.218 26.4943C29.0465 24.8857 29.5205 23.2749 30.5359 22.0151C31.5513 20.7554 33.0253 19.9497 34.6345 19.7747L138.273 8.62232C139.883 8.45086 141.494 8.92448 142.755 9.93928C144.016 10.9541 144.822 12.4272 144.997 14.0354L148.487 46.4327C148.659 48.0413 148.185 49.6522 147.169 50.9119C146.154 52.1717 144.68 52.9775 143.071 53.1525L39.4322 64.3049C39.212 64.3286 38.9908 64.3405 38.7694 64.3406Z" fill="#E6E6E6"/>
<path d="M137.131 10.127C136.937 10.127 136.742 10.1375 136.548 10.1584L36.6464 20.9087C35.9479 20.9838 35.271 21.1958 34.6544 21.5324C34.0378 21.869 33.4936 22.3237 33.0529 22.8705C32.6121 23.4173 32.2834 24.0455 32.0856 24.7192C31.8878 25.393 31.8247 26.0991 31.8999 26.7972L33.6647 43.1776C33.95 45.8257 34.7543 48.3918 36.0319 50.7292C37.3094 53.0666 39.0352 55.1297 41.1105 56.8005C43.1859 58.4714 45.5702 59.7174 48.1274 60.4674C50.6845 61.2173 53.3645 61.4566 56.0142 61.1714L126.262 53.6121C128.904 53.3279 131.463 52.5264 133.795 51.2535C136.127 49.9806 138.185 48.2611 139.851 46.1933C141.518 44.1255 142.761 41.7499 143.509 39.202C144.257 36.6542 144.496 33.984 144.212 31.3439L142.44 14.902C142.299 13.5924 141.679 12.3809 140.7 11.4997C139.72 10.6186 138.449 10.1298 137.131 10.127Z" fill="white"/>
<path d="M116.093 27.1738L60.2567 33.1823C60.097 33.1997 59.9355 33.1855 59.7814 33.1404C59.6272 33.0954 59.4835 33.0204 59.3583 32.9198C59.2332 32.8192 59.1291 32.6949 59.0521 32.5541C58.9751 32.4133 58.9266 32.2586 58.9094 32.099C58.8922 31.9395 58.9066 31.7781 58.9519 31.6241C58.9972 31.4701 59.0724 31.3265 59.1732 31.2016C59.274 31.0767 59.3985 30.9728 59.5396 30.896C59.6806 30.8192 59.8354 30.771 59.9951 30.754L115.832 24.7455C115.991 24.7281 116.153 24.7423 116.307 24.7873C116.461 24.8324 116.605 24.9074 116.73 25.008C116.855 25.1086 116.959 25.2328 117.036 25.3737C117.113 25.5145 117.162 25.6691 117.179 25.8287C117.196 25.9883 117.182 26.1497 117.136 26.3037C117.091 26.4577 117.016 26.6013 116.915 26.7262C116.814 26.8511 116.69 26.9549 116.549 27.0317C116.408 27.1085 116.253 27.1568 116.093 27.1738Z" fill="#39827E"/>
<path d="M116.896 34.6267L61.0597 40.6352C60.7375 40.6699 60.4147 40.5752 60.1624 40.3721C59.91 40.1689 59.7488 39.8738 59.7141 39.5518C59.6794 39.2298 59.7741 38.9072 59.9774 38.655C60.1807 38.4028 60.4759 38.2416 60.7981 38.2069L116.635 32.1984C116.957 32.1638 117.28 32.2584 117.532 32.4616C117.784 32.6648 117.946 32.9598 117.98 33.2818C118.015 33.6039 117.92 33.9265 117.717 34.1787C117.514 34.4309 117.218 34.5921 116.896 34.6267Z" fill="#39827E"/>
<path d="M68.3694 47.3876L61.8625 48.0878C61.5403 48.1225 61.2175 48.0279 60.9651 47.8247C60.7128 47.6215 60.5515 47.3264 60.5168 47.0044C60.4821 46.6824 60.5768 46.3598 60.7801 46.1076C60.9834 45.8554 61.2787 45.6942 61.6009 45.6595L68.1078 44.9593C68.2674 44.9419 68.429 44.9562 68.5831 45.0012C68.7373 45.0463 68.881 45.1212 69.0061 45.2218C69.1313 45.3224 69.2353 45.4467 69.3124 45.5875C69.3894 45.7284 69.4379 45.883 69.4551 46.0426C69.4723 46.2022 69.4578 46.3636 69.4126 46.5176C69.3673 46.6716 69.2921 46.8151 69.1913 46.94C69.0904 47.065 68.9659 47.1688 68.8249 47.2456C68.6839 47.3224 68.5291 47.3707 68.3694 47.3876Z" fill="#39827E"/>
<path d="M36.5706 27.8622C37.7853 27.8622 38.7701 26.878 38.7701 25.664C38.7701 24.45 37.7853 23.4658 36.5706 23.4658C35.3558 23.4658 34.3711 24.45 34.3711 25.664C34.3711 26.878 35.3558 27.8622 36.5706 27.8622Z" fill="#3F3D56"/>
<path d="M134.998 16.871C136.213 16.871 137.198 15.8868 137.198 14.6728C137.198 13.4588 136.213 12.4746 134.998 12.4746C133.784 12.4746 132.799 13.4588 132.799 14.6728C132.799 15.8868 133.784 16.871 134.998 16.871Z" fill="#3F3D56"/>
<path d="M105.262 61.9982C105.06 61.8209 104.9 61.6007 104.794 61.3537C104.687 61.1068 104.637 60.8393 104.647 60.5706C104.758 57.3778 104.232 54.1949 103.1 51.2073C103.004 50.9562 102.965 50.6868 102.986 50.4188C103.007 50.1508 103.088 49.8909 103.222 49.6579C103.351 49.4341 103.527 49.2411 103.739 49.0925C103.95 48.9439 104.191 48.8434 104.445 48.7979C107.002 47.2561 109.623 46.8233 112.237 47.5117C112.658 47.4497 113.088 47.5398 113.449 47.766C113.81 47.9922 114.078 48.3395 114.206 48.7457C115.264 52.1792 115.853 55.74 115.956 59.3313C115.966 59.7621 115.82 60.1821 115.545 60.514C115.27 60.8458 114.884 61.0674 114.459 61.138L106.724 62.4151C106.465 62.4585 106.199 62.4436 105.946 62.3714C105.693 62.2993 105.46 62.1719 105.262 61.9982Z" fill="#39827E"/>
<path d="M105.949 52.6956L112.46 51.6207C112.513 51.612 112.564 51.5928 112.611 51.5643C112.657 51.5357 112.697 51.4984 112.728 51.4543C112.76 51.4103 112.783 51.3605 112.795 51.3077C112.807 51.2549 112.809 51.2002 112.8 51.1467C112.791 51.0932 112.772 51.042 112.743 50.996C112.715 50.95 112.677 50.9101 112.633 50.8786C112.589 50.8471 112.539 50.8246 112.486 50.8124C112.433 50.8001 112.379 50.7985 112.325 50.8074L105.815 51.8823C105.707 51.9004 105.611 51.9604 105.548 52.0492C105.484 52.138 105.458 52.2483 105.476 52.356C105.494 52.4637 105.554 52.5599 105.643 52.6236C105.731 52.6873 105.842 52.7132 105.949 52.6956Z" fill="white"/>
<path d="M106.488 55.9494L112.999 54.8745C113.107 54.8566 113.203 54.7967 113.267 54.7079C113.33 54.619 113.356 54.5085 113.338 54.4006C113.32 54.2928 113.26 54.1964 113.172 54.1328C113.083 54.0691 112.972 54.0434 112.864 54.0612L106.354 55.1361C106.3 55.1448 106.249 55.164 106.203 55.1925C106.157 55.2211 106.117 55.2584 106.085 55.3025C106.054 55.3465 106.031 55.3963 106.019 55.4491C106.006 55.5019 106.004 55.5566 106.013 55.6101C106.022 55.6635 106.041 55.7148 106.07 55.7608C106.099 55.8068 106.136 55.8467 106.18 55.8782C106.225 55.9097 106.274 55.9322 106.327 55.9444C106.38 55.9567 106.435 55.9583 106.488 55.9494Z" fill="white"/>
<path d="M107.025 59.2023L113.535 58.1274C113.643 58.1096 113.739 58.0496 113.803 57.9608C113.867 57.8719 113.892 57.7614 113.874 57.6536C113.857 57.5457 113.797 57.4494 113.708 57.3857C113.619 57.322 113.508 57.2963 113.4 57.3141L106.89 58.389C106.837 58.3978 106.785 58.4171 106.74 58.4457C106.694 58.4743 106.654 58.5116 106.622 58.5556C106.591 58.5996 106.568 58.6494 106.556 58.7021C106.543 58.7548 106.542 58.8094 106.55 58.8628C106.559 58.9162 106.579 58.9674 106.607 59.0133C106.636 59.0593 106.673 59.0992 106.717 59.1307C106.761 59.1622 106.811 59.1848 106.864 59.1971C106.916 59.2093 106.971 59.2111 107.025 59.2023Z" fill="white"/>
</g>
<defs>
<clipPath id="clip0_611_55830">
<rect width="201" height="173" fill="white"/>
</clipPath>
</defs>
</svg>
