
<svg width="45" height="46" viewBox="0 0 45 46" fill="none" xmlns="http://www.w3.org/2000/svg">
<path d="M20.625 37.8235H12.1875C9.34375 37.8235 6.91437 36.8455 4.89937 34.8896C2.88312 32.9337 1.875 30.5432 1.875 27.7181C1.875 25.2965 2.60937 23.1388 4.07812 21.245C5.54688 19.3512 7.46875 18.1404 9.84375 17.6127C10.625 14.7565 12.1875 12.4436 14.5312 10.6739C16.875 8.90434 19.5312 8.01953 22.5 8.01953C26.1562 8.01953 29.2575 9.28434 31.8037 11.8139C34.3512 14.3448 35.625 17.4264 35.625 21.0587C37.7812 21.3071 39.5706 22.2304 40.9931 23.8287C42.4144 25.4281 43.125 27.2989 43.125 29.4411C43.125 31.7695 42.305 33.749 40.665 35.3795C39.0238 37.0088 37.0312 37.8235 34.6875 37.8235H24.375V24.5048L27.375 27.3921L30 24.7842L22.5 17.3333L15 24.7842L17.625 27.3921L20.625 24.5048V37.8235Z" fill="#5CA5A1"/>
</svg>
